<svg width="58" height="66" viewBox="0 0 58 66" fill="none" xmlns="http://www.w3.org/2000/svg">
<path d="M49.7896 12.2635C49.5543 12.2411 44.5294 11.8684 44.5294 11.8684C44.5294 11.8684 41.0368 8.3854 40.6546 8.00207C40.2712 7.61661 39.5227 7.73161 39.2309 7.81999C39.1894 7.8317 38.4696 8.05638 37.278 8.42374C36.111 5.05147 34.0549 1.95287 30.4356 1.95287C30.3355 1.95287 30.2322 1.95713 30.1278 1.96352C29.0992 0.59736 27.8236 0 26.7215 0C18.2892 0 16.2086 10.596 14.9457 15.9807C11.6682 16.9987 9.15313 22.6028 8.85605 22.6965C7.02564 23.2736 6.9692 23.3311 6.73068 25.0636C6.54647 26.3733 0 58.6946 0 58.6946L37.2919 65.716L57.4999 61.3215C57.4999 61.3215 50.4072 13.127 50.3625 12.7959C50.3177 12.4658 50.0281 12.2826 49.7896 12.2635ZM29.851 10.3691C29.851 10.4959 29.8488 10.6151 29.8488 10.7354C27.7959 11.3754 25.5683 12.0675 23.3311 12.765C24.5865 7.89878 26.9376 5.54555 28.9959 4.65856C29.5124 5.96402 29.851 7.84022 29.851 10.3691ZM26.4883 2.27444C26.8567 2.27444 27.2209 2.39796 27.5723 2.6418C24.8687 3.91851 21.9735 7.13957 20.7489 13.5678C18.9611 14.1237 17.2148 14.6689 15.5974 15.1715C17.0306 10.2659 20.4316 2.27444 26.4883 2.27444ZM27.9418 30.9307C27.9418 30.9307 25.7589 29.7605 23.0851 29.7605C19.1602 29.7605 18.9622 32.2351 18.9622 32.8569C18.9622 36.259 27.7863 37.5634 27.7863 45.5314C27.7863 51.801 23.8316 55.8367 18.4947 55.8367C12.0931 55.8367 8.81772 51.8319 8.81772 51.8319L10.531 46.1405C10.531 46.1405 13.8958 49.0464 16.7389 49.0464C18.5916 49.0464 19.3466 47.5769 19.3466 46.5046C19.3466 42.0665 12.1069 41.8685 12.1069 34.5755C12.1069 28.4412 16.4897 22.4995 25.3404 22.4995C28.7468 22.4995 30.4334 23.4823 30.4334 23.4823L27.9418 30.9307ZM32.0615 10.0476C32.0615 9.8229 32.0636 9.60355 32.0636 9.36184C32.0636 7.26841 31.773 5.58069 31.3087 4.24328C33.1742 4.47647 34.4169 6.61036 35.2166 9.06475C34.2806 9.35864 33.2158 9.68873 32.0615 10.0476Z" fill="#79B259"/>
</svg>
